mtllib pivot.mtl

g Mesh1 Group1 Model

usemtl Color_E02
v -5.3125 0 -2.3622
vt 8.80964 2.16535
vn -1.00265e-016 -1 -0
v 12.404 -1.77636e-015 -2.3622
vt -8.9069 2.16535
v 12.404 -1.77636e-015 2.3622
vt -8.9069 -2.55906
v -5.3125 0 2.3622
vt 8.80964 -2.55906
f 1/1/1 2/2/1 3/3/1 4/4/1 

v -5.3125 10.7283 -2.3622
vt 8.80964 5.36417
vn 0 0 -1
v 12.404 6.59449 -2.3622
vt -8.9069 1.23031
v 9.54854 4.94587 -2.3622
vt -6.0514 -0.418307
v 9.54854 1.64862 -2.3622
vt -6.0514 -3.71555
vt -8.9069 -5.36417
vt 8.80964 -5.36417
v -8.26526 2.75591 -2.3622
vt 11.7624 -2.60827
v -8.26526 8.66142 -2.3622
vt 11.7624 3.29724
f 5/5/2 6/6/2 7/7/2 8/8/2 2/9/2 1/10/2 9/11/2 10/12/2 

vt 2.16535 9.79809
vn 0.22723 0.973841 -0
v -5.3125 10.7283 2.3622
vt -2.55906 9.79809
v 12.404 6.59449 2.3622
vt -2.55906 -8.39434
vt 2.16535 -8.39434
f 5/13/3 11/14/3 12/15/3 6/16/3 

vt -2.16535 -7.74528
vn -0.573462 0.819232 -0
v -8.26526 8.66142 2.3622
vt 2.55906 -7.74528
vt 2.55906 -4.14099
vt -2.16535 -4.14099
f 10/17/4 13/18/4 11/19/4 5/20/4 

vt 2.55906 3.29724
vn -1 0 -0
vt -2.16535 3.29724
vt -2.16535 -2.60827
v -8.26526 2.75591 2.3622
vt 2.55906 -2.60827
f 13/21/5 10/22/5 9/23/5 14/24/5 

vt -2.16535 2.78026
vn -0.682318 -0.731055 -0
vt 2.55906 2.78026
vt 2.55906 6.81929
vt -2.16535 6.81929
f 1/25/6 4/26/6 14/27/6 9/28/6 

vt -11.7624 3.29724
vn 0 0 1
vt -11.7624 -2.60827
vt -8.80964 -5.36417
vt 8.9069 -5.36417
v 9.54854 1.64862 2.3622
vt 6.0514 -3.71555
v 9.54854 4.94587 2.3622
vt 6.0514 -0.418307
vt 8.9069 1.23031
vt -8.80964 5.36417
f 13/29/7 14/30/7 4/31/7 3/32/7 15/33/7 16/34/7 12/35/7 11/36/7 

v 12.404 -1.77636e-015 2.75591
vt 2.95276 -10.3957
vn -0.5 -0.866025 -0
v 9.54854 1.64862 2.75591
vt 2.95276 -7.09844
vt 2.55906 -7.09844
vt 2.55906 -10.3957
f 17/37/8 18/38/8 15/39/8 3/40/8 

v 12.404 6.59449 2.75591
v 9.54854 4.94587 2.75591
v 15.2595 1.64862 2.75591
vt 11.7624 -3.71555
v 15.2595 4.94587 2.75591
vt 11.7624 -0.418307
f 19/35/7 20/34/7 18/33/7 17/32/7 21/41/7 22/42/7 

vt 2.95276 5.03151
vn -0.5 0.866025 -0
vt 2.95276 8.32876
vt 2.55906 8.32876
vt 2.55906 5.03151
f 20/43/9 19/44/9 12/45/9 16/46/9 

v 15.2595 4.94587 -3.14961
vn 0.5 0.866025 4.13735e-018
v 12.404 6.59449 -3.14961
vt 2.16535 -7.09844
vt -2.55906 -7.09844
vt -2.95276 -7.09844
vt -2.95276 -10.3957
f 23/37/10 24/38/10 6/47/10 12/48/10 19/49/10 22/50/10 

v 9.54854 4.94587 -3.14961
vt -11.7624 -0.418307
v 15.2595 1.64862 -3.14961
vt -11.7624 -3.71555
v 12.404 -1.77636e-015 -3.14961
v 9.54854 1.64862 -3.14961
f 25/7/2 24/6/2 23/51/2 26/52/2 27/9/2 28/8/2 

vt -2.95276 8.32876
vt -2.95276 5.03151
vt -2.16535 5.03151
vt -2.16535 8.32876
f 24/53/9 25/54/9 7/55/9 6/56/9 

vt -2.95276 -0.418307
vt -2.95276 -3.71555
vt -2.16535 -3.71555
vt -2.16535 -0.418307
f 25/57/5 28/58/5 8/59/5 7/60/5 

vt -2.16535 -10.3957
vt -2.16535 -7.09844
f 28/49/8 27/50/8 2/61/8 8/62/8 

vn 0.5 -0.866025 -0
vt -2.55906 5.03151
vt 2.16535 5.03151
f 27/43/11 26/44/11 21/53/11 17/54/11 3/63/11 2/64/11 

vt 2.95276 -3.71555
vn 1 -1.07748e-015 -0
vt 2.95276 -0.418307
f 26/65/12 23/66/12 22/57/12 21/58/12 

vt 2.55906 -0.418307
vt 2.55906 -3.71555
f 18/65/5 20/66/5 16/67/5 15/68/5 

