<?xml version="1.0" encoding="UTF-8" standalone="no"?>
<svg
   xmlns:dc="http://purl.org/dc/elements/1.1/"
   xmlns:cc="http://creativecommons.org/ns#"
   xmlns:rdf="http://www.w3.org/1999/02/22-rdf-syntax-ns#"
   xmlns:svg="http://www.w3.org/2000/svg"
   xmlns="http://www.w3.org/2000/svg"
   xmlns:sodipodi="http://sodipodi.sourceforge.net/DTD/sodipodi-0.dtd"
   xmlns:inkscape="http://www.inkscape.org/namespaces/inkscape"
   id="scene"
   width="29.333334"
   height="211.46666"
   viewBox="0 0 8.8000002 63.439998"
   version="1.1"
   inkscape:version="0.48.2 r9819"
   sodipodi:docname="test.svg">
  <metadata
     id="metadata31">
    <rdf:RDF>
      <cc:Work
         rdf:about="">
        <dc:format>image/svg+xml</dc:format>
        <dc:type
           rdf:resource="http://purl.org/dc/dcmitype/StillImage" />
      </cc:Work>
    </rdf:RDF>
  </metadata>
  <defs
     id="defs29" />
  <sodipodi:namedview
     pagecolor="#ffffff"
     bordercolor="#666666"
     borderopacity="1"
     objecttolerance="10"
     gridtolerance="10"
     guidetolerance="10"
     inkscape:pageopacity="0"
     inkscape:pageshadow="2"
     inkscape:window-width="640"
     inkscape:window-height="480"
     id="namedview27"
     showgrid="false"
     fit-margin-top="0"
     fit-margin-left="0"
     fit-margin-right="0"
     fit-margin-bottom="0"
     inkscape:zoom="0.834386"
     inkscape:cx="-55.333333"
     inkscape:cy="81.056421"
     inkscape:window-x="0"
     inkscape:window-y="0"
     inkscape:window-maximized="0"
     inkscape:current-layer="scene" />
  <path
     fill="rgb(204, 204, 204"
     d="M 1.88,53.5 3.28,52.7 3.28,0.2 1.88,1"
     id="path3"
     inkscape:connector-curvature="0" />
  <path
     d="M 1.88,53.5 3.28,52.7 3.28,0.2 1.88,1 z"
     id="path5"
     inkscape:connector-curvature="0"
     style="fill:none;stroke:#000000;stroke-width:0.40000001;stroke-linejoin:round" />
  <path
     d="m 1.6,61.64 2.8,1.6 1.4,-5.2 L 3.84,53.92 2.16,52.96 0.2,54.84"
     id="path7"
     inkscape:connector-curvature="0"
     style="fill:#ffff00" />
  <path
     d="m 4.4,63.24 2.8,-1.6 1.4,-5.2 -2.8,1.6"
     id="path9"
     inkscape:connector-curvature="0"
     style="fill:#cccccc" />
  <path
     d="m 5.8,58.04 2.8,-1.6 -1.96,-4.12 -2.8,1.6"
     id="path11"
     inkscape:connector-curvature="0"
     style="fill:#f2f2f2" />
  <path
     d="m 3.84,53.92 2.8,-1.6 -1.68,-0.96 -2.8,1.6"
     id="path13"
     inkscape:connector-curvature="0"
     style="fill:#cccccc" />
  <path
     d="m 5.8,58.04 2.8,-1.6"
     id="path15"
     inkscape:connector-curvature="0"
     style="fill:none;stroke:#000000;stroke-width:0.2;stroke-linejoin:round" />
  <path
     d="m 3.84,53.92 2.8,-1.6"
     id="path17"
     inkscape:connector-curvature="0"
     style="fill:none;stroke:#000000;stroke-width:0.2;stroke-linejoin:round" />
  <path
     d="M 4.4,63.24 5.8,58.04 3.84,53.92 2.16,52.96"
     id="path19"
     inkscape:connector-curvature="0"
     style="fill:none;stroke:#000000;stroke-width:0.2;stroke-linejoin:round" />
  <path
     d="m 1.6,61.64 2.8,1.6 2.8,-1.6 1.4,-5.2 -1.96,-4.12 -1.68,-0.96 -2.8,1.6 -1.96,1.88 z"
     id="path21"
     inkscape:connector-curvature="0"
     style="fill:none;stroke:#000000;stroke-width:0.40000001;stroke-linejoin:round" />
  <path
     d="m 5.52,55.58 1.4,-0.8 0,-52.5 -1.4,0.8"
     id="path23"
     inkscape:connector-curvature="0"
     style="fill:#ffffff" />
  <path
     d="m 5.52,55.58 1.4,-0.8 0,-52.5 -1.4,0.8 z"
     id="path25"
     inkscape:connector-curvature="0"
     style="fill:none;stroke:#000000;stroke-width:0.40000001;stroke-linejoin:round" />
</svg>
