<?xml version="1.0" encoding="UTF-8" standalone="no"?>
<!-- Created with Inkscape (http://www.inkscape.org/) -->

<svg
   xmlns:dc="http://purl.org/dc/elements/1.1/"
   xmlns:cc="http://creativecommons.org/ns#"
   xmlns:rdf="http://www.w3.org/1999/02/22-rdf-syntax-ns#"
   xmlns:svg="http://www.w3.org/2000/svg"
   xmlns="http://www.w3.org/2000/svg"
   xmlns:sodipodi="http://sodipodi.sourceforge.net/DTD/sodipodi-0.dtd"
   xmlns:inkscape="http://www.inkscape.org/namespaces/inkscape"
   width="255.77463"
   height="332.0997"
   id="svg2"
   version="1.1"
   inkscape:version="0.48.2 r9819"
   sodipodi:docname="robot.svg"
   style="display:inline">
  <title
     id="title4055">robot</title>
  <defs
     id="defs4">
    <inkscape:perspective
       sodipodi:type="inkscape:persp3d"
       inkscape:vp_x="0 : 526.18109 : 1"
       inkscape:vp_y="0 : 1000 : 0"
       inkscape:vp_z="744.09448 : 526.18109 : 1"
       inkscape:persp3d-origin="372.04724 : 350.78739 : 1"
       id="perspective10" />
    <inkscape:perspective
       id="perspective3779"
       inkscape:persp3d-origin="0.5 : 0.33333333 : 1"
       inkscape:vp_z="1 : 0.5 : 1"
       inkscape:vp_y="0 : 1000 : 0"
       inkscape:vp_x="0 : 0.5 : 1"
       sodipodi:type="inkscape:persp3d" />
  </defs>
  <sodipodi:namedview
     id="base"
     pagecolor="#ffffff"
     bordercolor="#666666"
     borderopacity="1.0"
     inkscape:pageopacity="0.0"
     inkscape:pageshadow="2"
     inkscape:zoom="0.6411631"
     inkscape:cx="-68.633346"
     inkscape:cy="101.8221"
     inkscape:document-units="px"
     inkscape:current-layer="layer2"
     showgrid="false"
     inkscape:window-width="1366"
     inkscape:window-height="706"
     inkscape:window-x="-8"
     inkscape:window-y="-8"
     inkscape:window-maximized="1"
     fit-margin-top="0"
     fit-margin-left="0"
     fit-margin-right="0"
     fit-margin-bottom="0" />
  <metadata
     id="metadata7">
    <rdf:RDF>
      <cc:Work
         rdf:about="">
        <dc:format>image/svg+xml</dc:format>
        <dc:type
           rdf:resource="http://purl.org/dc/dcmitype/StillImage" />
        <dc:title>robot</dc:title>
        <dc:date>2011-03-06</dc:date>
        <dc:creator>
          <cc:Agent>
            <dc:title>tzunghaor (Prim András)</dc:title>
          </cc:Agent>
        </dc:creator>
        <cc:license
           rdf:resource="http://creativecommons.org/licenses/publicdomain/" />
        <dc:publisher>
          <cc:Agent>
            <dc:title>openclipart.org</dc:title>
          </cc:Agent>
        </dc:publisher>
        <dc:subject>
          <rdf:Bag>
            <rdf:li>robot</rdf:li>
            <rdf:li>machine</rdf:li>
            <rdf:li>droid</rdf:li>
            <rdf:li />
          </rdf:Bag>
        </dc:subject>
      </cc:Work>
      <cc:License
         rdf:about="http://creativecommons.org/licenses/publicdomain/">
        <cc:permits
           rdf:resource="http://creativecommons.org/ns#Reproduction" />
        <cc:permits
           rdf:resource="http://creativecommons.org/ns#Distribution" />
        <cc:permits
           rdf:resource="http://creativecommons.org/ns#DerivativeWorks" />
      </cc:License>
    </rdf:RDF>
  </metadata>
  <g
     inkscape:groupmode="layer"
     id="layer2"
     inkscape:label="Réteg"
     transform="translate(-150.5061,-144.20538)">
    <path
       style="fill:#000000;fill-opacity:1;stroke:none"
       d="M 149.53125,0 C 136.52524,0.12267524 121.44438,1.245096 108.125,2.65625 93.242579,4.2329949 81.174596,6.0072875 75.625,7.5625 c -0.139983,0.016808 -0.266177,0.1059542 -0.40625,0.125 -0.03316,0.00963 -0.123625,-0.00961 -0.15625,0 -3.08724,0.4386243 -6.174398,1.4009503 -8.75,3.5 -6.86774,5.597028 -8.633195,11.75278 -9.0625,15.03125 l -0.65625,0.5 c -0.572512,0.294426 -1.133769,0.558268 -1.625,0.90625 -1.719153,1.217828 -3.296156,2.568907 -4.75,3.9375 -0.01044,0.0098 -0.02082,0.02141 -0.03125,0.03125 l -2,1.5 a 3.6425211,3.6425211 0 0 0 -1.40625,2.25 c -7.510935,8.959964 -10.812847,20.196707 -11.4375,32.3125 -1.12538,-0.791555 -2.971258,-1.098383 -4.125,-0.6875 -3.776454,1.344888 -6.003538,4.480635 -8.03125,7.8125 -1.954546,3.211636 -3.5523,6.798419 -4.6875,9.90625 -0.6857,0.951983 -1.148175,1.989984 -1.5,3.1875 -0.721977,2.457401 -2.306517,8.054336 -3.59375,13.65625 -0.643612,2.80096 -1.222556,5.54874 -1.59375,8 -0.371194,2.45126 -0.676852,4.30455 -0.21875,6.5 0.4802,2.30138 1.231898,5.08049 2.65625,7.625 1.307033,2.33493 3.52275,4.6991 6.6875,5.40625 -9.256158,25.36905 -9.452194,53.62234 -11.34375,78.96875 -0.1327021,1.77733 0.45138,3.30447 1.53125,4.53125 0.01431,0.0163 0.04793,0.0151 0.0625,0.0312 -0.31915,1.15717 -0.531755,2.40425 -0.59375,3.65625 -0.04133,0.83471 0.04563,1.63166 0.125,2.4375 -0.8522618,0.21876 -1.7662497,0.32765 -2.5625,0.625 l 0,-0.0312 c -0.1391088,0.0289 -0.2982625,0.0864 -0.4375,0.125 -0.06776,0.0268 -0.1514578,0.035 -0.21875,0.0625 -0.2667572,0.0831 -0.5380699,0.17322 -0.78125,0.28125 -0.4885804,0.21701 -0.7363935,0.41541 -1.03125,0.625 l 0,-0.0312 c 0.1407205,-0.0782 -0.052522,-0.0116 -0.53125,0.28125 l 0.0625,0.0937 a 3.6425211,3.6425211 0 0 0 -0.65625,0.5 c -2.4829358,2.38854 -3.2852995,5.54027 -3.875,8.96875 -0.58970048,3.42848 -0.74911443,7.25323 -0.65625,10.9375 0.09286443,3.68427 0.44469234,7.22382 0.9375,10.09375 0.2464036,1.43497 0.5271351,2.67338 0.875,3.78125 0.3478649,1.10787 0.357753,2.01367 1.9375,3.375 3.6435084,3.13977 7.997648,10.74108 11.65625,19.46875 3.658602,8.72767 6.823462,18.60074 9.21875,26.65625 0.914738,3.07629 2.944924,6.1274 5.15625,9.1875 2.211326,3.0601 4.412024,5.71909 6.40625,7.375 0.977629,0.81177 2.035537,1.41602 3.125,1.9375 -2.662433,1.81767 -4.57999,4.6916 -4.75,8.125 -0.01627,0.32855 -0.0149,0.64647 0,0.96875 l 70.25,0 c -1.39737,-4.73086 -2.79102,-9.20474 -4,-13.0625 5.93103,-0.59329 10.998,-3.98104 14.1875,-8.8125 3.76834,1.83061 7.58828,3.28679 11.46875,3.75 3.54102,0.42268 7.92326,-0.13519 12.125,-1.125 2.03395,1.52456 4.01403,2.88506 6.0625,3.75 2.04003,0.86137 4.30981,1.31544 6.53125,0.9375 2.07276,0.90344 4.28313,1.54917 6.625,1.53125 3.10517,-0.0238 5.87093,-1.22348 8.46875,-3.03125 -0.19786,1.20405 -0.39481,2.32321 -0.65625,3.875 -0.57322,3.40238 -1.31816,7.86014 -2.03125,12.1875 l 42.1875,0 c 0.789,-4.49967 1.44607,-8.99779 1.9375,-13.34375 0.90985,-8.04625 1.34152,-15.52502 1.375,-21.34375 0.0168,-2.90937 -0.0659,-5.41733 -0.25,-7.4375 -0.18412,-2.02017 -0.1191,-3.25319 -1.21875,-5.15625 -1.24559,-2.15561 -2.22817,-4.27315 -3.625,-6.15625 -0.69841,-0.94154 -1.53475,-1.92912 -3,-2.59375 -1.46525,-0.66463 -3.55256,-0.5763 -4.96875,0.15625 -0.88748,0.45907 -1.69263,1.08542 -2.53125,1.625 -0.42145,-0.25407 -0.80838,-0.55923 -1.25,-0.78125 1.70378,-5.24881 3.06261,-10.91635 3.78125,-16.03125 0.43756,-3.11433 0.67782,-5.96761 0.6875,-8.34375 0.005,-1.18807 -0.0379,-2.27496 -0.1875,-3.28125 -0.1496,-1.00629 -0.26214,-1.94893 -1.15625,-3.1875 -1.18588,-1.64275 -1.88055,-1.47483 -2.46875,-1.65625 -0.5882,-0.18142 -1.1529,-0.30306 -1.78125,-0.40625 -0.22791,-0.0374 -0.56612,-0.0594 -0.8125,-0.0937 L 190.6875,241 c 3.51675,-1.0452 6.34818,-3.06907 8.3125,-5.5 2.47568,-3.06376 3.77948,-6.61654 4.34375,-9.8125 2.35579,-13.34291 4.02539,-29.41476 5.1875,-43.25 1.68128,-2.79015 3.25162,-5.75189 4.59375,-8.84375 0.28369,0.91855 0.69261,2.14106 0.9375,2.96875 0.55019,1.85964 0.99613,3.46336 1.28125,4.65625 0.28512,1.19289 0.31481,2.30327 0.34375,1.71875 -0.0894,1.80636 0.5814,3.89967 2,5.1875 -0.32352,1.17125 -0.59377,2.36324 -0.65625,3.625 -0.23524,4.75071 1.56876,9.14443 4.59375,12.34375 a 3.6425211,3.6425211 0 0 0 -0.5,1.03125 c -1.00546,3.65939 -1.36404,7.8666 -1.15625,11.78125 0.20779,3.91465 0.67139,7.49502 3.125,10.375 1.97897,2.32286 14.06168,15.77327 24,23.78125 2.62267,2.11326 5.66673,5.4627 8.6875,8.9375 l 0,-61.90625 c -1.05725,-1.73919 -2.44098,-3.11692 -4.03125,-3.96875 -0.64005,-0.34284 -1.30732,-0.43437 -1.96875,-0.625 0.002,-0.0437 0.0291,-0.0812 0.0312,-0.125 0.28113,-5.67756 -2.38143,-10.74485 -6.5625,-13.96875 0.18319,-1.306 0.19967,-2.60553 0.0937,-3.84375 -2.04202,-23.87148 -0.44128,-46.76611 -9.5625,-70.46875 0.15895,-0.0528 0.30984,-0.0696 0.46875,-0.125 1.3782,-0.48 2.83394,-1.3255 3.75,-2.75 0.91606,-1.4245 1.08462,-3.01306 1.03125,-4.3125 -0.10673,-2.598879 -0.83171,-5.021916 -1.4375,-8.71875 -1.34737,-8.222377 -4.57991,-18.473746 -8.71875,-24.6875 -2.24131,-3.364934 -4.15384,-5.682674 -6.25,-7.25 -1.04809,-0.783663 -2.16725,-1.436234 -3.53125,-1.6875 -1.364,-0.251266 -2.9605,0.03566 -4.15625,0.75 -2.03312,1.214567 -2.8543,3.024077 -3.46875,4.9375 -0.99292,-6.160324 -2.05557,-12.004295 -3.25,-17 -1.73101,-7.239958 -3.44972,-12.856068 -6.1875,-16.625 -3.83144,-5.274482 -7.0242,-8.681347 -12.0625,-10.96875 -3.00182,-1.362836 -6.32246,-1.562959 -9.21875,-1.6875 -2.01742,-0.08675 -2.77035,-0.02538 -3.65625,0 C 172.13591,10.557057 168.15801,5.481906 156.375,0.3125 A 3.6425211,3.6425211 0 0 0 154.96875,0.03125 C 153.20669,0.00697194 151.38925,-0.01752503 149.53125,0 z m -90.875,154.40625 c 2.905506,5.939 5.581009,11.02255 7.125,13.75 4.872117,8.60654 10.970957,21.90576 15.65625,33.875 2.342641,5.98462 4.311507,11.6637 5.625,16.21875 1.313493,4.55505 1.755073,8.36473 1.6875,8.84375 -0.285465,2.02374 0.360879,4.02082 1.375,5.53125 1.014121,1.51043 2.342537,2.67481 3.84375,3.6875 2.312674,1.56008 5.147675,2.72912 8.125,3.75 l -0.0312,2.53125 c -1.48057,0.001 -3.085475,0.006 -4.03125,0 A 3.6425211,3.6425211 0 0 0 96.625,242.875 c -2.829076,-0.17845 -5.710451,0.15436 -8.3125,1.53125 -3.39899,1.79859 -6.297876,5.23886 -6.96875,9.75 -0.588839,3.95945 -0.289875,10.3113 0.65625,16.8125 0.473058,3.25059 1.114625,6.4499 2.03125,9.28125 0.517437,1.59831 1.137057,3.0647 1.90625,4.40625 -2.212102,2.04596 -3.920863,4.58156 -5.03125,7.46875 -1.568201,-1.24409 -3.255475,-3.13805 -6.4375,-4.625 a 3.6425211,3.6425211 0 0 0 -0.0625,-0.0625 c -1.087861,-0.48145 -2.567915,-0.77614 -4.0625,-0.21875 -1.494585,0.55739 -2.391888,1.82391 -2.78125,2.71875 -0.778713,1.78967 -0.630586,3.02764 -0.6875,3.6875 a 3.6425211,3.6425211 0 0 0 -0.03125,0.125 c -0.31554,5.99208 -0.819738,12.48153 -1.28125,19 -0.582483,-1.70838 -1.445831,-3.30544 -2.59375,-4.65625 1.022089,-2.56467 1.832746,-4.95527 2.15625,-6.625 0.272866,-1.40837 0.01834,-2.17944 -0.21875,-3 -0.237089,-0.82056 -0.549702,-1.6377 -0.9375,-2.5625 -0.775595,-1.8496 -1.862648,-4.13289 -3.15625,-7.03125 -2.587203,-5.79673 -6.044774,-13.98483 -9.40625,-25.0625 -2.601773,-8.57411 -3.669863,-18.0629 -4.28125,-25.625 -0.305698,-3.78106 -0.530191,-7.03789 -0.78125,-9.625 -0.12553,-1.29355 -0.226742,-2.42549 -0.4375,-3.4375 -0.210758,-1.01201 -0.06099,-1.93832 -1.71875,-3.4375 -0.431787,-0.39048 -0.848446,-0.57997 -1.28125,-0.84375 0.225115,-0.96489 0.386758,-1.94401 0.4375,-2.96875 0.04817,-0.97273 -0.137866,-1.92378 -0.25,-2.875 1.310542,-1.80703 1.820718,-3.85567 2.59375,-6.375 0.990858,-3.22924 1.915091,-7.10327 2.75,-11.0625 1.669818,-7.91846 3.089654,-16.33209 3.84375,-19.5625 0.636218,-2.72545 3.700992,-13.83728 6.375,-23.59375 z"
       transform="translate(150.49947,144.21132)"
       id="path3874"
       inkscape:connector-curvature="0" />
    <path
       style="fill:#666666;fill-opacity:1;stroke:none"
       d="m 240.86394,412.0513 c -0.53705,10.84585 -1.61443,14.03342 0.18461,16.69708 7.06728,10.46385 23.10309,24.23598 36.39563,25.82271 6.28342,0.75005 20.08847,-2.29231 20.54053,-6.31549 0.45206,-4.02318 -5.04917,-35.90153 -5.04917,-35.90153 l -52.0716,-0.30277 z"
       id="path3897"
       sodipodi:nodetypes="cssscc"
       inkscape:connector-curvature="0" />
    <path
       style="fill:#1a1a1a;fill-opacity:1;stroke:none"
       d="m 256.34525,375.14359 -0.33995,27.29071 79.37479,0.3905 3.41666,-28.14974 -82.4515,0.46853 z"
       id="path3843"
       inkscape:connector-curvature="0" />
    <path
       style="fill:#999999;fill-opacity:1;stroke:none"
       d="m 252.45672,392.39754 c -5.20779,-3.95668 -15.76717,-1.86215 -17.00932,6.49032 -0.91899,6.1795 0.74391,25.82729 5.58866,30.11275 4.84475,4.28545 -3.79076,-15.35856 9.32516,-14.70911 8.13414,0.40279 39.90863,49.1416 51.95372,43.53388 4.28363,-1.99429 -43.28881,-68.77525 -49.85822,-65.42784 z"
       id="path3895"
       sodipodi:nodetypes="cssssc"
       inkscape:connector-curvature="0" />
    <path
       transform="matrix(0.80121615,0.03967347,-0.03967347,0.80121615,240.9998,127.15897)"
       sodipodi:type="arc"
       style="fill:#1a1a1a;fill-opacity:1;stroke:none"
       id="path3851"
       sodipodi:cx="190.89285"
       sodipodi:cy="252.18361"
       sodipodi:rx="15.892858"
       sodipodi:ry="16.25"
       d="m 206.78571,252.18361 c 0,8.97463 -7.11547,16.25 -15.89286,16.25 -8.77738,0 -15.89285,-7.27537 -15.89285,-16.25 0,-8.97463 7.11547,-16.25 15.89285,-16.25 8.77739,0 15.89286,7.27537 15.89286,16.25 z" />
    <path
       style="fill:#808080;fill-opacity:1;stroke:none"
       d="m 363.93539,215.82708 c 0.60055,-12.128 3.62008,-18.30422 12.41062,-5.10676 3.52444,5.29135 6.87923,15.57059 8.14392,23.28841 1.2647,7.71782 2.77213,10.46093 -0.93957,11.75363 -6.79197,2.36549 -13.44501,1.92542 -20.09917,1.50782 l 0.4842,-31.4431 z"
       id="path3845"
       sodipodi:nodetypes="cszscc"
       inkscape:connector-curvature="0" />
    <path
       d="m 206.78571,252.18361 c 0,8.97463 -7.11547,16.25 -15.89286,16.25 -8.77738,0 -15.89285,-7.27537 -15.89285,-16.25 0,-8.97463 7.11547,-16.25 15.89285,-16.25 8.77739,0 15.89286,7.27537 15.89286,16.25 z"
       sodipodi:ry="16.25"
       sodipodi:rx="15.892858"
       sodipodi:cy="252.18361"
       sodipodi:cx="190.89285"
       id="path3837"
       style="fill:#1a1a1a;fill-opacity:1;stroke:none"
       sodipodi:type="arc"
       transform="matrix(0.80121615,0.03967347,-0.03967347,0.80121615,34.537362,151.62096)" />
    <path
       d="m 206.78571,252.18361 c 0,8.97463 -7.11547,16.25 -15.89286,16.25 -8.77738,0 -15.89285,-7.27537 -15.89285,-16.25 0,-8.97463 7.11547,-16.25 15.89285,-16.25 8.77739,0 15.89286,7.27537 15.89286,16.25 z"
       sodipodi:ry="16.25"
       sodipodi:rx="15.892858"
       sodipodi:cy="252.18361"
       sodipodi:cx="190.89285"
       id="path3806"
       style="fill:#1a1a1a;fill-opacity:1;stroke:none"
       sodipodi:type="arc"
       transform="matrix(0.92022087,0.04556618,-0.04510819,0.91097179,196.84476,-9.332844)" />
    <path
       style="fill:#ffffff;fill-opacity:1;stroke:none"
       d="m 213.35945,223.74704 -0.0431,58.64105 51.48457,101.24154 c 24.58755,1.69505 40.62493,2.28904 73.01528,-1.39066 7.97658,-0.90618 11.48563,-7.55247 12.44247,-12.97195 5.12868,-29.04831 7.18795,-72.94807 7.18795,-72.94807 l -97.20667,-87.77199 -46.88054,15.20008 z"
       id="path3794"
       sodipodi:nodetypes="cccssccc"
       inkscape:connector-curvature="0" />
    <path
       style="fill:#666666;fill-opacity:1;stroke:none"
       d="m 244.95288,339.68653 c 7.82643,15.5584 21.72503,20.32601 34.84236,21.44738 13.11733,1.12137 49.43691,2.44795 55.31068,-3.83524 5.87377,-6.28318 16.79212,-12.31658 13.37604,-35.24201 0,0 -18.21903,-122.26897 -21.77521,-121.93936 -3.55618,0.3296 -118.28814,9.31362 -118.28814,9.31362 l 7.63087,80.78338 28.9034,49.47223 z"
       id="path3876"
       sodipodi:nodetypes="czzcsccc"
       inkscape:connector-curvature="0" />
    <rect
       style="fill:#1a1a1a;fill-opacity:1;stroke:none"
       id="rect3798"
       width="112.32143"
       height="16.964287"
       x="180.10391"
       y="254.74634"
       transform="matrix(0.99583542,-0.09116912,0.09116912,0.99583542,0,0)" />
    <path
       style="fill:#ffffff;fill-opacity:1;stroke:none"
       d="m 374.3432,236.72452 c -8.73757,3.14315 -8.96718,7.78032 -8.96718,7.78032 0,0 10.75332,71.69098 11.21946,76.72018 0.46613,5.02921 -1.19032,9.59574 5.64009,8.86121 6.83039,-0.73452 8.39932,-5.34106 8.00304,-9.97355 -2.49102,-29.12035 0.42694,-55.6008 -15.89541,-83.38816 z"
       id="path3847"
       sodipodi:nodetypes="ccsssc"
       inkscape:connector-curvature="0" />
    <path
       style="fill:#999999;fill-opacity:1;stroke:none"
       d="m 368.42395,240.72238 c 0,0 12.85717,83.62072 13.09024,86.13533 0.23306,2.5146 -1.37041,4.25904 -5.34629,3.36498 -2.65364,-0.59673 -6.52301,1.38558 -6.31106,-2.89489 0.21196,-4.28047 -14.55732,-45.41838 -14.55732,-45.41838 l 0.80215,-37.86381 12.32228,-3.32323 z"
       id="path3849"
       sodipodi:nodetypes="csssccc"
       inkscape:connector-curvature="0" />
    <path
       style="fill:#ffffff;fill-opacity:1;stroke:none"
       d="m 218.68245,166.79774 -17.8284,13.42042 50.83879,56.51201 8.08321,82.28616 c 0,0 14.62106,29.688 38.55569,30.158 14.3941,0.28265 36.05258,-5.33189 41.51572,-7.95653 12.8203,-6.15922 24.96559,-28.00281 25.94474,-47.34624 0.72086,-14.24102 -5.18693,-104.67032 -16.23404,-119.87814 -3.73714,-5.14466 -6.21283,-7.83073 -10.59865,-9.8219 -3.90838,-1.77442 -12.80609,-1.34927 -12.80609,-1.34927 -5.83431,-4.93745 -8.76967,-9.73133 -20.71349,-14.9713 -30.01628,-0.41356 -77.16865,5.83354 -80.50263,8.17151 -3.334,2.33798 -6.27251,11.13198 -6.25485,10.77528 z"
       id="path3788"
       sodipodi:nodetypes="ccccsssssccsc"
       inkscape:connector-curvature="0" />
    <path
       style="fill:#999999;fill-opacity:1;stroke:none"
       d="m 207.55736,174.8288 c -43.15822,30.57292 2.54459,119.27626 11.87215,135.75327 10.03562,17.72777 24.53087,53.42142 23.42887,61.23362 -1.102,7.8122 22.22863,13.25843 31.57364,12.29084 9.345,-0.9676 1.02445,-20.68894 1.02445,-20.68894 0,0 -40.46631,-34.90115 -56.58443,-99.34858 -2.79443,-11.17338 1.85889,-47.50846 14.46639,-32.18107 13.49106,16.40156 12.17406,78.19291 34.39802,99.6803 -5.60258,-28.30438 -11.50764,-80.8709 -11.32157,-103.54376 0.18607,-22.67287 -34.10278,-63.6478 -48.85752,-53.19568 z"
       id="path3786"
       sodipodi:nodetypes="cssscssczs"
       inkscape:connector-curvature="0" />
    <path
       style="fill:#999999;fill-opacity:1;stroke:none"
       d="m 211.24806,172.50848 c 0,0 -0.65099,-7.33682 7.8583,-14.27168 7.78046,-6.34088 24.60927,-1.27067 28.14444,2.10878 10.61086,10.14348 10.04391,22.47666 13.10592,31.40087 0,0 -20.48732,-26.76025 -31.58053,-26.59439 -11.80602,0.17653 -17.4928,6.64301 -17.52813,7.35642 z"
       id="path3790"
       sodipodi:nodetypes="cssczc"
       inkscape:connector-curvature="0" />
    <path
       sodipodi:type="arc"
       style="fill:#1a1a1a;fill-opacity:1;stroke:none"
       id="path3796"
       sodipodi:cx="190.89285"
       sodipodi:cy="252.18361"
       sodipodi:rx="15.892858"
       sodipodi:ry="16.25"
       d="m 206.78571,252.18361 c 0,8.97463 -7.11547,16.25 -15.89286,16.25 -8.77738,0 -15.89285,-7.27537 -15.89285,-16.25 0,-8.97463 7.11547,-16.25 15.89285,-16.25 8.77739,0 15.89286,7.27537 15.89286,16.25 z"
       transform="matrix(0.9987763,0.04945597,-0.04945597,0.9987763,20.317408,-15.597972)" />
    <path
       style="fill:#1a1a1a;fill-opacity:1;stroke:none"
       d="m 229.62841,234.77884 -27.06187,2.47716 1.57182,16.91093 24.64157,-2.25283 0.84848,-17.13526 z"
       id="rect3800"
       inkscape:connector-curvature="0" />
    <path
       style="fill:#ffffff;fill-opacity:1;stroke:none"
       d="m 185.83797,255.99683 c 7.90051,-0.68154 26.98062,1.65692 27.2544,5.6405 0.72741,10.58465 -12.04915,51.96769 -13.86456,59.74457 -1.8154,7.77688 -6.15272,37.59887 -10.41554,37.0302 -4.2628,-0.56866 -14.10926,-3.91686 -13.93263,-7.48392 0.17663,-3.56706 10.54864,-93.87891 10.95833,-94.93135 z"
       id="path3833"
       sodipodi:nodetypes="cssssc"
       inkscape:connector-curvature="0" />
    <path
       style="fill:#999999;fill-opacity:1;stroke:none"
       d="m 181.17739,260.36377 c 3.13514,-3.8949 6.66543,-7.88292 7.33295,-1.09716 1.46614,14.90438 -5.59128,55.10437 -6.31404,67.17729 -0.72276,12.07293 3.35091,29.30347 -1.66064,29.41289 -5.01154,0.10943 -3.58637,-2.93136 -8.4713,-2.85373 -4.88493,0.0776 -3.4282,1.29057 -5.14588,1.98703 -1.79412,0.72747 -3.31698,-0.93789 -3.2027,-2.46922 2.28164,-30.57345 2.10597,-64.63056 17.46161,-92.1571 z"
       id="path3835"
       sodipodi:nodetypes="cszszssc"
       inkscape:connector-curvature="0" />
    <path
       style="fill:#e6e6e6;fill-opacity:1;stroke:none"
       d="m 182.92631,214.61872 c -6.20374,2.20932 -11.99401,18.35786 -12.15298,21.56822 -0.15896,3.21035 -1.09165,29.26754 0.90729,32.22716 1.99892,2.95963 11.61466,5.07468 13.78788,3.18579 4.67078,-4.05968 0.29021,-34.00536 -0.51505,-50.98071 -0.20912,-4.40845 -0.78925,-6.4413 -2.02714,-6.00046 z"
       id="path3808"
       sodipodi:nodetypes="csssss"
       inkscape:connector-curvature="0" />
    <path
       style="fill:#999999;fill-opacity:1;stroke:none"
       d="m 170.97935,233.08364 c -1.39586,4.75111 -6.16252,22.29648 -5.29553,26.45159 0.86699,4.15511 2.88069,9.89213 6.99626,10.35869 5.60046,0.63489 5.98794,0.49426 5.76739,-4.54176 -0.66905,-15.27697 -1.75446,-28.13102 -2.55662,-31.41488 -0.80215,-3.28386 -3.35138,-6.16386 -4.9115,-0.85364 z"
       id="path3810"
       sodipodi:nodetypes="czsszs"
       inkscape:connector-curvature="0" />
    <path
       style="fill:#ffffff;fill-opacity:1;stroke:none"
       d="m 157.58803,367.95098 c 8.11247,-4.96201 30.88865,-2.76146 34.65346,0.64317 1.90327,1.72121 0.6868,22.44787 6.15893,40.48122 6.8364,22.52927 14.1318,33.49769 13.65678,35.94947 -0.96068,4.95855 -7.96082,23.56369 -16.68417,19.19836 -8.72335,-4.36534 -38.07105,-97.71671 -37.785,-96.27222 z"
       id="path3839"
       sodipodi:nodetypes="cssssc"
       inkscape:connector-curvature="0" />
    <path
       style="fill:#999999;fill-opacity:1;stroke:none"
       d="m 158.69347,367.29056 c -6.98534,3.10276 -4.45024,30.45872 -2.0304,32.54401 9.21178,7.93819 17.18152,31.59456 22.00853,47.8281 1.22996,4.13638 7.6037,12.53423 10.35138,14.81578 4.43048,3.67886 13.25799,4.32561 8.75488,-2.25361 -14.11414,-20.62125 -29.93034,-78.02063 -32.12653,-88.50825 -0.41497,-1.98159 -3.87905,-5.79358 -6.95786,-4.42603 z"
       id="path3841"
       sodipodi:nodetypes="cssssss"
       inkscape:connector-curvature="0" />
    <path
       style="fill:#ffffff;fill-opacity:1;stroke:none"
       d="m 248.50848,390.4321 c 23.25504,0.14012 92.56565,-0.47342 94.45858,2.14879 1.89294,2.6222 -0.44236,20.89731 -5.12986,32.11047 -4.12781,9.87431 -18.92539,34.86588 -29.5437,34.94714 -15.10033,0.11556 -29.04882,-31.17636 -32.52964,-37.5151 -7.42187,-13.51559 -27.25538,-31.6913 -27.25538,-31.6913 z"
       id="path3893"
       sodipodi:nodetypes="cssssc"
       inkscape:connector-curvature="0" />
    <path
       sodipodi:type="arc"
       style="fill:#ffffff;fill-opacity:1;stroke:none"
       id="path4019"
       sodipodi:cx="195.75589"
       sodipodi:cy="241.49167"
       sodipodi:rx="3.3085501"
       sodipodi:ry="1.9299877"
       d="m 199.06444,241.49167 c 0,1.0659 -1.48129,1.92999 -3.30855,1.92999 -1.82726,0 -3.30855,-0.86409 -3.30855,-1.92999 0,-1.0659 1.48129,-1.92999 3.30855,-1.92999 1.82726,0 3.30855,0.86409 3.30855,1.92999 z"
       transform="matrix(0.95330492,0.30200949,-0.30200949,0.95330492,89.739335,-55.735372)" />
    <path
       transform="matrix(0.95330492,0.30200949,-0.30200949,0.95330492,253.03977,-70.009372)"
       d="m 199.06444,241.49167 c 0,1.0659 -1.48129,1.92999 -3.30855,1.92999 -1.82726,0 -3.30855,-0.86409 -3.30855,-1.92999 0,-1.0659 1.48129,-1.92999 3.30855,-1.92999 1.82726,0 3.30855,0.86409 3.30855,1.92999 z"
       sodipodi:ry="1.9299877"
       sodipodi:rx="3.3085501"
       sodipodi:cy="241.49167"
       sodipodi:cx="195.75589"
       id="path4021"
       style="fill:#ffffff;fill-opacity:1;stroke:none"
       sodipodi:type="arc" />
    <path
       sodipodi:type="arc"
       style="fill:#000000;fill-opacity:1;stroke:#000000;stroke-width:0.60000002;stroke-linecap:butt;stroke-linejoin:miter;stroke-miterlimit:4;stroke-opacity:1;stroke-dasharray:none;stroke-dashoffset:0"
       id="path3952"
       sodipodi:cx="159.86572"
       sodipodi:cy="110.62753"
       sodipodi:rx="35.092476"
       sodipodi:ry="35.872307"
       d="m 194.9582,110.62753 c 0,19.81173 -15.71144,35.87231 -35.09248,35.87231 -19.38104,0 -35.09247,-16.06058 -35.09247,-35.87231 0,-19.811725 15.71143,-35.872304 35.09247,-35.872304 19.38104,0 35.09248,16.060579 35.09248,35.872304 z"
       transform="translate(150.49947,144.21132)" />
    <path
       sodipodi:type="arc"
       style="fill:#b6ff00;fill-opacity:1;stroke:#000000;stroke-width:0.60000001999999997;stroke-linecap:butt;stroke-linejoin:miter;stroke-miterlimit:4;stroke-opacity:1;stroke-dasharray:none;stroke-dashoffset:0"
       id="path3954"
       sodipodi:cx="155.18672"
       sodipodi:cy="401.50516"
       sodipodi:rx="25.734482"
       sodipodi:ry="25.734482"
       d="m 180.9212,401.50516 c 0,14.21276 -11.52172,25.73448 -25.73448,25.73448 -14.21276,0 -25.73448,-11.52172 -25.73448,-25.73448 0,-14.21276 11.52172,-25.73448 25.73448,-25.73448 14.21276,0 25.73448,11.52172 25.73448,25.73448 z"
       transform="translate(158.2978,-142.76714)" />
  </g>
</svg>
