mtllib tarsal.mtl

g Mesh1 Group1 Model

usemtl Color_E02
v 2.95276 -0.984252 0.787402
vt -0.787402 -0.984252
vn 1 0 -0
v 2.95276 -0.984252 -0.787402
vt 0.787402 -0.984252
v 2.95276 0.984252 -0.787402
vt 0.787402 0.984252
v 2.95276 0.984252 0.787402
vt -0.787402 0.984252
f 1/1/1 2/2/1 3/3/1 4/4/1 

vt -1.37497 0.787402
vn 0 -1 -0
vt -1.37497 -0.787402
v 3.55271e-015 -0.984252 0.787402
vt 1.57779 -0.787402
v 3.55271e-015 -0.984252 -0.787402
vt 1.57779 0.787402
f 2/5/2 1/6/2 5/7/2 6/8/2 

vt 1.37497 -0.984252
vn -1.25441e-015 -3.90952e-031 1
vt 1.37497 0.984252
v 3.55271e-015 0.984252 0.787402
vt -1.57779 0.984252
v 0.852387 0.492126 0.787402
vt -0.725401 0.492126
v 0.852387 -0.492126 0.787402
vt -0.725401 -0.492126
vt -1.57779 -0.984252
f 1/9/3 4/10/3 7/11/3 8/12/3 9/13/3 5/14/3 

vt 1.37497 0.787402
vn 0 1 -0
v 3.55271e-015 0.984252 -0.787402
vt -1.57779 0.787402
vt -1.57779 -0.787402
vt 1.37497 -0.787402
f 3/15/4 10/16/4 7/17/4 4/18/4 

vt -1.37497 -0.984252
vn 2.91499e-015 -3.47055e-030 -1
vt 1.57779 -0.984252
v 0.852387 -0.492126 -0.787402
vt 0.725401 -0.492126
v 0.852387 0.492126 -0.787402
vt 0.725401 0.492126
vt 1.57779 0.984252
vt -1.37497 0.984252
f 2/19/5 6/20/5 11/21/5 12/22/5 10/23/5 3/24/5 

v 3.55271e-015 -0.984252 -0.984252
vt 0.984252 -1.85853
vn 0.5 -0.866025 1.4575e-015
v 0.852387 -0.492126 -0.984252
vt 0.984252 -0.874279
vt 0.787402 -0.874279
vt 0.787402 -1.85853
f 13/25/6 14/26/6 11/27/6 6/28/6 

vn 0 0 -1
v -0.852387 -0.492126 -0.984252
vt 2.43018 -0.492126
v -0.852387 0.492126 -0.984252
vt 2.43018 0.492126
v 3.55271e-015 0.984252 -0.984252
v 0.852387 0.492126 -0.984252
f 14/21/7 13/20/7 15/29/7 16/30/7 17/23/7 18/22/7 

vt -0.984252 1.85853
vn -0.5 -0.866025 6.4289e-018
vt -0.984252 0.874279
vt -0.787402 0.874279
vt 0.787402 0.874279
v 3.55271e-015 -0.984252 0.984252
vt 0.984252 0.874279
v -0.852387 -0.492126 0.984252
vt 0.984252 1.85853
f 15/31/8 13/32/8 6/33/8 5/34/8 19/35/8 20/36/8 

v 0.852387 -0.492126 0.984252
vt -0.984252 -0.874279
vn 0.5 -0.866025 6.27206e-016
vt -0.984252 -1.85853
vt -0.787402 -1.85853
vt -0.787402 -0.874279
f 21/37/9 19/38/9 5/39/9 9/40/9 

vn 0 0 1
v 0.852387 0.492126 0.984252
v 3.55271e-015 0.984252 0.984252
v -0.852387 0.492126 0.984252
vt -2.43018 0.492126
vt -2.43018 -0.492126
f 19/14/10 21/13/10 22/12/10 23/11/10 24/41/10 20/42/10 

vt -0.984252 0.492126
vn 1 -1.44382e-014 1.25441e-015
vt -0.984252 -0.492126
vt -0.787402 -0.492126
vt -0.787402 0.492126
f 22/43/11 21/44/11 9/45/11 8/46/11 

vn 0.5 0.866025 6.27206e-016
vt -0.787402 1.85853
f 23/31/12 22/32/12 8/33/12 7/47/12 

vn -0.5 0.866025 6.4289e-018
f 17/37/13 16/38/13 24/25/13 23/26/13 7/27/13 10/40/13 

vn -1 0 -0
vt 0.984252 -0.492126
vt 0.984252 0.492126
f 16/43/14 15/44/14 20/48/14 24/49/14 

vn 0.5 0.866025 1.4575e-015
vt 0.787402 1.85853
f 18/35/15 17/36/15 10/50/15 12/34/15 

vn 1 -1.44382e-014 2.91499e-015
vt 0.787402 0.492126
vt 0.787402 -0.492126
f 14/48/16 18/49/16 12/51/16 11/52/16 

