mtllib Piston.mtl

g Mesh1 Group1 Model

usemtl FrontColor
v 1.1811 -7.56304 -0.984252
vt -1.1811 -1.9685
vn 1.35098e-015 -3.40157e-034 -1
v 0.852387 -7.56304 -0.984252
vt -0.852387 -1.9685
v 0.852387 7.56304 -0.984252
vt -0.852387 13.1576
v 1.1811 7.56304 -0.984252
vt -1.1811 13.1576
f 1/1/1 2/2/1 3/3/1 4/4/1 

v 1.1811 -7.56304 0.984252
vt -1.1811 -7.90725e-032
vn -2.16158e-014 -1 -4.01688e-032
v 0.852387 -7.56304 0.984252
vt -0.852387 4.44089e-016
vt -0.852387 1.9685
vt -1.1811 1.9685
f 5/5/2 6/6/2 2/7/2 1/8/2 

v 0.852387 7.56304 0.984252
vt 0.852387 13.1576
vn -1.35098e-015 3.40157e-034 1
vt 0.852387 -1.9685
vt 1.1811 -1.9685
v 1.1811 7.56304 0.984252
vt 1.1811 13.1576
f 7/9/3 6/10/3 5/11/3 8/12/3 

vt -1.9685 -1.9685
vn -1 0 -0
vt -4.44089e-016 -1.9685
vt -4.44089e-016 13.1576
vt -1.9685 13.1576
f 2/13/4 6/14/4 7/15/4 3/16/4 

v 0 -7.16934 -0.492126
vt -1.47638 -0.660337
vn -0.419314 -0.907841 1.5402e-018
vt -1.9685 -1.59925
vt -4.40958e-016 -1.59925
v 0 -7.16934 0.492126
vt -0.492126 -0.660337
f 9/17/5 2/18/5 6/19/5 10/20/5 

vt -1.72244 -1.9685
vn -0.5 -5.65391e-032 -0.866025
vt -0.738189 -1.5748
v 0 7.16934 -0.492126
vt -0.738189 12.7639
vt -1.72244 13.1576
f 2/21/6 9/22/6 11/23/6 3/24/6 

v 0 7.16934 0.492126
vt -0.492126 12.7639
vt -1.47638 12.7639
vt -1.47638 -1.5748
vt -0.492126 -1.5748
f 12/25/4 11/26/4 9/27/4 10/28/4 

vt -0.492126 5.35207
vn -0.419314 0.907841 1.5402e-018
vt -4.40958e-016 6.29099
vt -1.9685 6.29099
vt -1.47638 5.35207
f 12/29/7 7/30/7 3/31/7 11/32/7 

vt 0.738189 -1.9685
vn -0.5 -5.49664e-032 0.866025
vt 0.738189 13.1576
vt -0.246063 12.7639
vt -0.246063 -1.5748
f 6/33/8 7/34/8 12/35/8 10/36/8 

vt 1.1811 1.9685
vn 0 1 -0
vt 0.852387 1.9685
vt 0.852387 4.44089e-016
vt 1.1811 0
f 4/37/9 3/38/9 7/39/9 8/40/9 

vt 1.9685 -1.9685
vn 1 0 -0
vt 1.9685 13.1576
vt 0 13.1576
vt 0 -1.9685
f 1/41/10 4/42/10 8/43/10 5/44/10 

