mtllib Board.mtl

g Mesh1 Group3 Group1 Model

usemtl FrontColor
v 43.3071 1.9685 -0
vt 21.6535 -21.6535
vn 0 1 -0
v 43.3071 1.9685 -43.3071
vt 21.6535 21.6535
v 5.43565e-013 1.9685 -43.3071
vt -21.6535 21.6535
v 5.43565e-013 1.9685 -0
vt -21.6535 -21.6535
f 1/1/1 2/2/1 3/3/1 4/4/1 

vt 21.6535 0.984252
vn 1 0 -0
vt -21.6535 0.984252
v 43.3071 0 -0
vt -21.6535 -0.984252
v 43.3071 0 -43.3071
vt 21.6535 -0.984252
f 2/5/2 1/6/2 5/7/2 6/8/2 

vn 0 0 1
v 5.43565e-013 0 -0
f 1/5/3 4/6/3 7/7/3 5/8/3 

vn -1 0 -0
v 5.43565e-013 0 -43.3071
f 4/5/4 3/6/4 8/7/4 7/8/4 

vn 0 0 -1
f 3/5/5 2/6/5 6/7/5 8/8/5 

vn 0 -1 -0
f 6/3/6 5/4/6 7/1/6 8/2/6 

