mtllib Cube-Medium.mtl

g Mesh1 Group1 Model

usemtl Color_A01
v 0 0 -6.88976
vt -3.44488 -3.44488
vn -1 0 -0
v 0 0 -0
vt 3.44488 -3.44488
v 0 6.88976 -0
vt 3.44488 3.44488
v 0 6.88976 -6.88976
vt -3.44488 3.44488
f 1/1/1 2/2/1 3/3/1 4/4/1 

vn 0 -1 -0
v 6.88976 0 -6.88976
v 6.88976 0 -0
f 1/3/2 5/4/2 6/1/2 2/2/2 

vn 0 0 -1
v 6.88976 6.88976 -6.88976
f 5/1/3 1/2/3 4/3/3 7/4/3 

vn 0 1 -0
v 6.88976 6.88976 -0
f 7/3/4 4/4/4 3/1/4 8/2/4 

vn 0 0 1
f 2/1/5 6/2/5 8/3/5 3/4/5 

vn 1 0 -0
f 6/1/6 5/2/6 7/3/6 8/4/6 

