mtllib Metatarsal.mtl

g Mesh1 Group1 Model

usemtl FrontColor
v 3.54331 0 0.984252
vt 0 0
vn 1 0 -0
v 3.54331 0 -0.984252
vt 1.9685 0
v 3.54331 1.9685 -0.984252
vt 1.9685 1.9685
v 3.54331 1.9685 0.984252
vt 0 1.9685
f 1/1/1 2/2/1 3/3/1 4/4/1 

v 0 0 0.984252
vn 0 -1 -0
v 0 0 -0.984252
vt -3.54331 1.9685
vt -3.54331 0
f 5/1/2 6/4/2 2/5/2 1/6/2 

vt -1.9685 0
vn -1 0 -0
v 0 1.9685 0.984252
v 0 1.9685 -0.984252
vt -1.9685 1.9685
f 6/7/3 5/1/3 7/4/3 8/8/3 

vn 0 0 1
vt 3.54331 0
vt 3.54331 1.9685
f 7/4/4 5/1/4 1/9/4 4/10/4 

vn 0 1 -0
f 8/4/5 7/1/5 4/9/5 3/10/5 

vn 0 0 -1
f 6/1/6 8/4/6 3/5/6 2/6/6 

