mtllib Pyramid-Large.mtl

g Mesh1 Group1 Model

usemtl Color_J01
v 7.87402 0 -7.87402
vt -3.93701 3.93701
vn 0 -1 -0
v 7.87402 0 -0
vt -3.93701 -3.93701
v 0 0 -0
vt 3.93701 -3.93701
v 0 0 -7.87402
vt 3.93701 3.93701
f 1/1/1 2/2/1 3/3/1 4/4/1 

vt -3.93701 -5.28205
vn 0.894427 0.447214 -0
vt 3.93701 -5.28205
v 3.93701 7.87402 -3.93701
vt 7.10543e-015 3.52137
f 2/5/2 1/6/2 5/7/2

vn 1.57885e-029 0.447214 -0.894427
vt -8.52651e-014 3.52137
f 4/6/3 5/8/3 1/5/3

vn -0.894427 0.447214 1.45197e-029
vt -7.10543e-015 3.52137
f 3/6/4 5/9/4 4/5/4

vn -1.3533e-029 0.447214 0.894427
vt 8.52651e-014 3.52137
f 2/6/5 5/10/5 3/5/5

