mtllib Pyramid-Small.mtl

g Mesh1 Group1 Model

usemtl Color_J01
v 0 0 -3.93701
vt 1.9685 1.9685
vn 0 -1 -0
v 3.93701 0 -3.93701
vt -1.9685 1.9685
v 3.93701 0 -0
vt -1.9685 -1.9685
v 0 0 -0
vt 1.9685 -1.9685
f 1/1/1 2/2/1 3/3/1 4/4/1 

vt -1.9685 -2.64103
vn 1.18413e-029 0.447214 -0.894427
vt 1.9685 -2.64103
v 1.9685 3.93701 -1.9685
vt 7.10543e-015 1.76068
f 2/5/2 1/6/2 5/7/2

vn 0.894427 -0.447214 -2.81937e-030
vt -5.32907e-015 1.76068
f 4/5/3 1/6/3 5/8/3

vn 1.40968e-031 0.447214 0.894427
vt -7.10543e-015 1.76068
f 3/6/4 5/9/4 4/5/4

vn 0.894427 0.447214 -2.96033e-030
f 2/6/5 5/8/5 3/5/5

