<?xml version="1.0" encoding="UTF-8" standalone="no"?>
<svg
   xmlns:dc="http://purl.org/dc/elements/1.1/"
   xmlns:cc="http://creativecommons.org/ns#"
   xmlns:rdf="http://www.w3.org/1999/02/22-rdf-syntax-ns#"
   xmlns:svg="http://www.w3.org/2000/svg"
   xmlns="http://www.w3.org/2000/svg"
   xmlns:sodipodi="http://sodipodi.sourceforge.net/DTD/sodipodi-0.dtd"
   xmlns:inkscape="http://www.inkscape.org/namespaces/inkscape"
   id="scene"
   width="29.333334"
   height="315.38309"
   viewBox="0 0 8.8000002 94.614926"
   version="1.1"
   inkscape:version="0.48.2 r9819"
   sodipodi:docname="gripper.svg">
  <metadata
     id="metadata31">
    <rdf:RDF>
      <cc:Work
         rdf:about="">
        <dc:format>image/svg+xml</dc:format>
        <dc:type
           rdf:resource="http://purl.org/dc/dcmitype/StillImage" />
      </cc:Work>
    </rdf:RDF>
  </metadata>
  <defs
     id="defs29" />
  <sodipodi:namedview
     pagecolor="#ffffff"
     bordercolor="#666666"
     borderopacity="1"
     objecttolerance="10"
     gridtolerance="10"
     guidetolerance="10"
     inkscape:pageopacity="0"
     inkscape:pageshadow="2"
     inkscape:window-width="1366"
     inkscape:window-height="706"
     id="namedview27"
     showgrid="false"
     fit-margin-top="0"
     fit-margin-left="0"
     fit-margin-right="0"
     fit-margin-bottom="0"
     inkscape:zoom="1.668772"
     inkscape:cx="9.984158"
     inkscape:cy="164.30935"
     inkscape:window-x="-8"
     inkscape:window-y="-8"
     inkscape:window-maximized="1"
     inkscape:current-layer="scene" />
  <path
     d="m 1.88,84.674926 1.4,-1.26714 0,-83.15607782 -1.4,1.26714102 z"
     id="path5"
     inkscape:connector-curvature="0"
     style="fill:#cccccc;stroke:#000000;stroke-width:0.50341636000000001;stroke-linejoin:round" />
  <path
     d="m 1.6,92.814926 2.8,1.6 1.4,-5.2 -1.96,-4.12 -1.68,-0.96 -1.96,1.88"
     id="path7"
     inkscape:connector-curvature="0"
     style="fill:#ffff00" />
  <path
     d="m 4.4,94.414926 2.8,-1.6 1.4,-5.2 -2.8,1.6"
     id="path9"
     inkscape:connector-curvature="0"
     style="fill:#cccccc" />
  <path
     d="m 5.8,89.214926 2.8,-1.6 -1.96,-4.12 -2.8,1.6"
     id="path11"
     inkscape:connector-curvature="0"
     style="fill:#f2f2f2" />
  <path
     d="m 3.84,85.094926 2.8,-1.6 -1.68,-0.96 -2.8,1.6"
     id="path13"
     inkscape:connector-curvature="0"
     style="fill:#cccccc" />
  <path
     d="m 5.8,89.214926 2.8,-1.6"
     id="path15"
     inkscape:connector-curvature="0"
     style="fill:none;stroke:#000000;stroke-width:0.2;stroke-linejoin:round" />
  <path
     d="m 3.84,85.094926 2.8,-1.6"
     id="path17"
     inkscape:connector-curvature="0"
     style="fill:none;stroke:#000000;stroke-width:0.2;stroke-linejoin:round" />
  <path
     d="m 4.4,94.414926 1.4,-5.2 -1.96,-4.12 -1.68,-0.96"
     id="path19"
     inkscape:connector-curvature="0"
     style="fill:none;stroke:#000000;stroke-width:0.2;stroke-linejoin:round" />
  <path
     d="m 1.6,92.814926 2.8,1.6 2.8,-1.6 1.4,-5.2 -1.96,-4.12 -1.68,-0.96 -2.8,1.6 -1.96,1.88 z"
     id="path21"
     inkscape:connector-curvature="0"
     style="fill:none;stroke:#000000;stroke-width:0.40000001;stroke-linejoin:round" />
  <path
     d="m 5.52,86.754926 1.4,-1.264104 0,-82.9568367 -1.4,1.2641042"
     id="path23"
     inkscape:connector-curvature="0"
     style="fill:#ffffff" />
  <path
     d="m 5.52,86.754926 1.4,-1.297044 0,-85.11853982 -1.4,1.29704502 z"
     id="path25"
     inkscape:connector-curvature="0"
     style="fill:none;stroke:#000000;stroke-width:0.50932199;stroke-linejoin:round" />
</svg>
